<?xml version="1.0" encoding="UTF-8"?>
<svg id="Layer_2" data-name="Layer 2" xmlns="http://www.w3.org/2000/svg" viewBox="0 0 1920 561.31">
  <defs>
    <style>
      .cls-1 {
        fill: #fff;
        stroke-width: 0px;
      }
    </style>
  </defs>
  <g id="Layer_1-2" data-name="Layer 1">
    <g>
      <path class="cls-1" d="M999.55,414.84l72.42-274.02c1.29-4.87,5.7-8.27,10.73-8.27h89.27c5.04,0,9.45,3.39,10.73,8.27l72.42,274.02c1.86,7.04-3.45,13.94-10.73,13.94h-42.57c-5.06,0-9.49-3.43-10.75-8.33l-12.63-48.94c-1.27-4.9-5.69-8.33-10.75-8.33h-80.7c-5.06,0-9.49,3.43-10.75,8.33l-12.63,48.94c-1.27,4.9-5.69,8.33-10.75,8.33h-42.57c-7.29,0-12.6-6.9-10.73-13.94ZM1100.81,303.95h53.05c3.85,0,6.65-3.64,5.67-7.36l-26.83-101.58c-.5-1.88-2.2-3.2-4.15-3.2h-2.42c-1.95,0-3.65,1.31-4.15,3.2l-26.84,101.58c-.98,3.72,1.82,7.36,5.67,7.36Z"/>
      <path class="cls-1" d="M1385.24,369.54h1.97c2.67,0,4.99-1.8,5.66-4.38l58.08-224.28c1.27-4.9,5.69-8.32,10.75-8.32h42.58c7.29,0,12.6,6.9,10.73,13.94l-72.42,274.02c-1.29,4.87-5.7,8.27-10.73,8.27h-91.26c-5.04,0-9.45-3.39-10.73-8.27l-72.42-274.02c-1.86-7.04,3.45-13.94,10.73-13.94h42.58c5.06,0,9.48,3.42,10.75,8.32l58.08,224.28c.67,2.58,3,4.38,5.66,4.38Z"/>
      <path class="cls-1" d="M693.48,417.68V143.66c0-6.13,4.97-11.1,11.1-11.1h64.89c4.03,0,7.75,2.19,9.71,5.71l112.49,202.49c.44.78,1.26,1.27,2.16,1.27h0c1.48,0,2.62-1.29,2.45-2.76l-3.83-32.57c-.03-.43-.05-.86-.08-1.3v-161.75c0-6.13,4.97-11.1,11.1-11.1h41.27c6.13,0,11.1,4.97,11.1,11.1v274.02c0,6.13-4.97,11.1-11.1,11.1h-64.88c-4.03,0-7.75-2.19-9.71-5.71l-112.49-202.49c-.44-.78-1.26-1.27-2.16-1.27h0c-1.48,0-2.62,1.29-2.45,2.76l3.83,32.57c.03.43.05.87.08,1.3v161.75c0,6.13-4.97,11.1-11.1,11.1h-41.27c-6.13,0-11.1-4.97-11.1-11.1Z"/>
      <path class="cls-1" d="M1555.04,417.68V143.66c0-6.13,4.97-11.1,11.1-11.1h43.89c6.13,0,11.1,4.97,11.1,11.1v274.02c0,6.13-4.97,11.1-11.1,11.1h-43.89c-6.13,0-11.1-4.97-11.1-11.1Z"/>
      <path class="cls-1" d="M561.31,280.65c0,155-125.65,280.65-280.65,280.65S0,435.66,0,280.65,125.65,0,280.65,0s280.65,125.65,280.65,280.65ZM426.87,245.1h-50.07l46.46-95.25c3.9-7.99-1.92-17.31-10.82-17.31h-63.25c-4.6,0-8.8,2.62-10.82,6.76l-49.78,102.07c-1.11,2.28-3.43,3.73-5.97,3.73h-3.93c-2.54,0-4.85-1.45-5.97-3.73l-49.78-102.07c-2.02-4.14-6.22-6.76-10.82-6.76h-63.25c-8.89,0-14.72,9.31-10.82,17.31l46.45,95.25h-50.07c-6.65,0-12.03,5.39-12.03,12.03v47.04c0,6.65,5.39,12.03,12.03,12.03h50.07l-46.46,95.25c-3.9,7.99,1.92,17.31,10.82,17.31h63.25c4.6,0,8.8-2.62,10.82-6.76l49.54-101.57c1.26-2.59,3.89-4.23,6.77-4.23h3.92c2.88,0,5.51,1.64,6.77,4.23l49.54,101.57c2.02,4.14,6.22,6.76,10.82,6.76h62.07c8.89,0,14.72-9.32,10.82-17.31l-46.45-95.25h50.15c6.65,0,12.03-5.39,12.03-12.03v-47.04c0-6.65-5.39-12.03-12.03-12.03Z"/>
      <path class="cls-1" d="M1767.26,317.99l-51.14,104.83c-1.78,3.64-5.47,5.95-9.52,5.95h-41.38c-7.83,0-12.95-8.2-9.52-15.23l62.54-128.23c1.43-2.93,1.43-6.36,0-9.29l-62.54-128.24c-3.43-7.04,1.69-15.23,9.52-15.23h41.75c4.05,0,7.74,2.31,9.52,5.95l51.2,104.99c1.78,3.64,5.47,5.95,9.52,5.95h20.19c4.05,0,7.74-2.31,9.52-5.95l51.2-104.99c1.78-3.64,5.47-5.95,9.52-5.95h41.75c7.83,0,12.95,8.2,9.52,15.23l-62.54,128.24c-1.43,2.93-1.43,6.36,0,9.29l62.54,128.23c3.43,7.04-1.69,15.23-9.52,15.23h-41.38c-4.05,0-7.74-2.31-9.52-5.95l-51.14-104.83c-1.78-3.64-5.47-5.95-9.52-5.95h-21.05c-4.05,0-7.74,2.31-9.52,5.95Z"/>
    </g>
  </g>
</svg>