<?xml version="1.0" encoding="UTF-8"?>
<svg version="1.1" xmlns="http://www.w3.org/2000/svg" width="884" height="570">
<path d="M0 0 C1.47981857 -0.01058945 1.47981857 -0.01058945 2.98953247 -0.02139282 C43.46045163 -0.24532308 43.46045163 -0.24532308 61.3671875 3.203125 C62.9464502 3.48518799 62.9464502 3.48518799 64.55761719 3.77294922 C111.56278732 12.2695697 155.18442716 32.24635798 192.3671875 62.203125 C193.31722656 62.94820312 194.26726562 63.69328125 195.24609375 64.4609375 C202.98780541 70.7390922 210.05646469 77.68108915 217.1171875 84.703125 C217.60701111 85.18768158 218.09683472 85.67223816 218.60150146 86.17147827 C225.31829395 92.83240303 231.51937077 99.76335419 237.3671875 107.203125 C238.16624512 108.20520996 238.16624512 108.20520996 238.98144531 109.22753906 C259.53133094 135.21256827 289.3671875 178.88661287 289.3671875 213.203125 C284.4171875 213.203125 279.4671875 213.203125 274.3671875 213.203125 C274.38495239 215.53540161 274.40271729 217.86767822 274.42102051 220.27062988 C274.58480912 242.28087233 274.70369743 264.29103409 274.78168488 286.30175018 C274.82284637 297.61693971 274.87891349 308.93168058 274.97070312 320.24658203 C275.05071633 330.11455143 275.10211832 339.98219574 275.11989546 349.85048056 C275.13027891 355.07053496 275.15449041 360.28965975 275.21302795 365.50941467 C275.26780682 370.43446161 275.28398522 375.35820661 275.27204895 380.28352928 C275.27422876 382.07971998 275.28985786 383.87595959 275.3208313 385.67188454 C275.5169776 397.64415379 273.5553296 406.07768409 267.41447353 416.40245533 C265.63922464 419.45476075 264.08637128 422.6155873 262.4921875 425.765625 C249.80563027 449.5309031 232.20367055 470.49401952 213.3046875 489.515625 C212.39477051 490.4348877 211.48485352 491.35415039 210.54736328 492.30126953 C204.4614395 498.35873907 198.11078502 503.89119487 191.3671875 509.203125 C190.69840576 509.73655518 190.02962402 510.26998535 189.34057617 510.81958008 C139.30695377 550.37523972 77.24800118 570.74207695 13.7421875 570.515625 C12.68136963 570.51380219 11.62055176 570.51197937 10.52758789 570.51010132 C-4.74232682 570.46589954 -19.5944193 570.06758085 -34.6328125 567.203125 C-36.04965332 566.95369141 -36.04965332 566.95369141 -37.49511719 566.69921875 C-81.97288372 558.81153601 -125.18469192 540.4074992 -160.6328125 512.203125 C-162.02886719 511.09517578 -162.02886719 511.09517578 -163.453125 509.96484375 C-168.86242369 505.60274912 -174.09080459 501.07516788 -179.22265625 496.390625 C-181.55862504 494.27045883 -183.93608125 492.2061519 -186.3203125 490.140625 C-189.75618959 487.08918171 -192.80330319 483.89118441 -195.765625 480.3828125 C-197.92541555 477.86155072 -200.18392142 475.44609205 -202.4453125 473.015625 C-235.91609247 436.16242835 -257.83230272 388.5983445 -267.3828125 340.015625 C-267.68106934 338.50379639 -267.68106934 338.50379639 -267.98535156 336.96142578 C-271.18050948 319.83746192 -272.00884404 302.97217596 -271.9453125 285.578125 C-271.94207977 283.98490417 -271.94207977 283.98490417 -271.93878174 282.35949707 C-271.88902853 267.08669983 -271.52843991 252.23923226 -268.6328125 237.203125 C-268.44477051 236.1502832 -268.25672852 235.09744141 -268.06298828 234.01269531 C-258.32480329 180.13891772 -232.89097342 125.95744023 -193.0390625 87.609375 C-191.46310246 86.09236227 -191.46310246 86.09236227 -189.6953125 83.703125 C-187.3457006 80.85511058 -184.75772049 78.60157055 -181.953125 76.2109375 C-179.39309368 73.99569154 -176.92427163 71.69612926 -174.4453125 69.390625 C-128.27434706 27.45726871 -62.54012485 0.29846383 0 0 Z M-104.6328125 213.203125 C-104.6328125 275.573125 -104.6328125 337.943125 -104.6328125 402.203125 C-79.3259375 402.265 -79.3259375 402.265 -53.5078125 402.328125 C-45.55469971 402.35543701 -45.55469971 402.35543701 -37.44091797 402.38330078 C-32.63514838 402.38999489 -32.63514838 402.38999489 -27.82937622 402.39401245 C-25.70998288 402.39705801 -23.59059273 402.40403819 -21.47122192 402.41427612 C0.67740534 402.5158013 24.20982332 402.18482515 41.2421875 385.828125 C52.58440977 373.65697027 55.30203753 360.43200391 54.7421875 344.17578125 C54.07592991 333.0846745 49.8623405 324.38687863 42.3671875 316.203125 C35.24888849 310.21005539 27.59068673 307.01220388 18.3671875 306.203125 C18.3671875 305.543125 18.3671875 304.883125 18.3671875 304.203125 C20.31625 303.89375 20.31625 303.89375 22.3046875 303.578125 C31.36612146 301.52970037 38.01279205 295.59330622 43.3671875 288.203125 C50.04135888 277.48273722 51.03137457 264.85500662 48.6796875 252.62890625 C45.10546891 240.0446783 38.41063704 229.09955114 27.0625 222.19140625 C13.87436682 215.07831574 0.8717166 213.03133454 -13.92602539 213.08959961 C-14.92824096 213.08947907 -15.93045652 213.08935854 -16.96304226 213.08923435 C-20.17720774 213.08997518 -23.39131377 213.09756528 -26.60546875 213.10546875 C-28.60184705 213.10694074 -30.59822573 213.10795987 -32.59460449 213.10852051 C-39.96151308 213.11374356 -47.32841339 213.12770483 -54.6953125 213.140625 C-71.1746875 213.16125 -87.6540625 213.181875 -104.6328125 213.203125 Z M82.3671875 213.203125 C82.3671875 275.573125 82.3671875 337.943125 82.3671875 402.203125 C97.2171875 402.203125 112.0671875 402.203125 127.3671875 402.203125 C127.3671875 380.753125 127.3671875 359.303125 127.3671875 337.203125 C143.3671875 338.203125 143.3671875 338.203125 148.1171875 342.953125 C148.79007812 343.94441406 149.46296875 344.93570313 150.15625 345.95703125 C152.64705294 349.61402284 155.45174101 352.69293013 158.4921875 355.890625 C159.52718562 356.99893282 160.56107488 358.10827738 161.59375 359.21875 C162.07618164 359.73630859 162.55861328 360.25386719 163.05566406 360.78710938 C166.85780763 364.89217876 170.47598646 369.15694385 174.10546875 373.4140625 C175.1299789 374.61477914 176.15472545 375.81529409 177.1796875 377.015625 C177.6948291 377.61890625 178.2099707 378.2221875 178.74072266 378.84375 C182.74434993 383.51527504 186.84410224 388.08273531 191.015625 392.60546875 C193.3671875 395.203125 193.3671875 395.203125 194.47344971 396.96401978 C196.61199936 400.10430242 198.21085127 401.93179405 201.99050903 402.81867981 C205.27002869 403.01352692 208.48186811 402.98986356 211.765625 402.88671875 C212.95572174 402.87681412 214.14581848 402.86690948 215.37197876 402.85670471 C219.16331563 402.8176016 222.95172962 402.72977549 226.7421875 402.640625 C229.31636437 402.6055064 231.89058673 402.57356838 234.46484375 402.54492188 C240.76661783 402.46785235 247.06669385 402.35079955 253.3671875 402.203125 C250.25567999 397.41708306 250.25567999 397.41708306 246.59765625 393.0546875 C246.10523438 392.52883057 245.6128125 392.00297363 245.10546875 391.46118164 C244.59371094 390.92227295 244.08195313 390.38336426 243.5546875 389.828125 C242.474558 388.67383397 241.39512634 387.51888953 240.31640625 386.36328125 C239.54562744 385.53981201 239.54562744 385.53981201 238.75927734 384.69970703 C234.93368116 380.58695631 231.30332798 376.30435431 227.6640625 372.02734375 C221.84411414 365.19580809 215.93024643 358.48579116 209.84375 351.890625 C207.68802072 349.55128471 205.54477472 347.20422299 203.4296875 344.828125 C202.92566406 344.26351562 202.42164063 343.69890625 201.90234375 343.1171875 C199.87778232 340.59292516 198.1337142 337.91205363 196.3671875 335.203125 C197.39457031 334.85121094 198.42195313 334.49929688 199.48046875 334.13671875 C208.16859066 331.07564059 215.8833717 327.69964181 223.3671875 322.203125 C224.02074219 321.73261719 224.67429687 321.26210938 225.34765625 320.77734375 C238.37060264 310.57172351 243.25896772 294.91595054 245.3671875 279.203125 C246.81787383 264.10692041 241.83495534 248.62039552 232.58203125 236.765625 C219.14920751 221.22429806 201.43644263 214.71104544 181.3671875 213.203125 C177.95822487 213.0806933 174.55490812 213.0758331 171.14404297 213.08959961 C170.16153124 213.08947907 169.17901951 213.08935854 168.1667347 213.08923435 C165.02259083 213.08997389 161.8785081 213.09755789 158.734375 213.10546875 C156.7787275 213.10694115 154.82307961 213.10796002 152.86743164 213.10852051 C145.65901087 213.11373889 138.45059857 213.12770014 131.2421875 213.140625 C107.0490625 213.1715625 107.0490625 213.1715625 82.3671875 213.203125 Z " fill="#5200C8" transform="translate(271.6328125,-0.203125)"/>
<path d="M0 0 C3.29612651 3.20846357 6.2858569 6.59161987 9.203125 10.14453125 C9.82703125 10.88058594 10.4509375 11.61664063 11.09375 12.375 C31.80497991 37.36709436 46.19709623 70.42080573 46.40625 103.16796875 C46.41683945 104.27683945 46.41683945 104.27683945 46.42764282 105.40811157 C46.65430157 136.09641715 46.65430157 136.09641715 43.203125 149.14453125 C42.90510986 150.31628906 42.90510986 150.31628906 42.60107422 151.51171875 C35.65594719 178.23094902 22.62816236 204.14449649 2.203125 223.14453125 C1.378125 223.96953125 0.553125 224.79453125 -0.296875 225.64453125 C-1.121875 226.46953125 -1.946875 227.29453125 -2.796875 228.14453125 C-3.24933594 228.64339844 -3.70179688 229.14226562 -4.16796875 229.65625 C-9.46735384 235.32566697 -15.73105427 239.62978623 -22.11376953 243.98583984 C-23.24190608 244.76247693 -24.35760951 245.55747016 -25.46044922 246.36962891 C-27.04296875 247.5078125 -27.04296875 247.5078125 -29.796875 249.14453125 C-32.796875 248.14453125 -32.796875 248.14453125 -34.50415039 244.76611328 C-35.14556317 243.23286271 -35.7747188 241.69445276 -36.39453125 240.15234375 C-36.74059921 239.31690033 -37.08666718 238.48145691 -37.44322205 237.62069702 C-38.5920588 234.84102793 -39.72548633 232.05532759 -40.859375 229.26953125 C-41.66485502 227.31397468 -42.47151355 225.35890315 -43.27929688 223.40429688 C-44.9591846 219.33683409 -46.63394182 215.26731474 -48.30517578 211.19628906 C-51.72500184 202.87648546 -55.20593234 194.58245425 -58.68753052 186.2883606 C-60.55762578 181.83148285 -62.42313432 177.37268606 -64.2890625 172.9140625 C-65.03873477 171.12320871 -65.78840925 169.33235585 -66.53808594 167.54150391 C-68.43367856 163.01271041 -70.32846326 158.48357938 -72.22293091 153.95431519 C-73.36606734 151.22142796 -74.5094301 148.48863552 -75.65283203 145.75585938 C-77.15197089 142.17284595 -78.65022176 138.58946297 -80.14794922 135.00585938 C-83.90241026 126.02729641 -87.67721417 117.05791557 -91.484375 108.1015625 C-92.60435714 105.46164739 -93.72403867 102.82160494 -94.84368896 100.18154907 C-95.89983138 97.69640082 -96.96178202 95.21378903 -98.02392578 92.73120117 C-98.65946141 91.23368073 -99.29473095 89.73604732 -99.9296875 88.23828125 C-100.22246582 87.55921219 -100.51524414 86.88014313 -100.81689453 86.18049622 C-102.02258795 83.321661 -102.796875 81.28297306 -102.796875 78.14453125 C-126.061875 78.63953125 -126.061875 78.63953125 -149.796875 79.14453125 C-152.725625 86.17765625 -155.654375 93.21078125 -158.671875 100.45703125 C-165.36531914 116.52578795 -172.07032292 132.58960637 -178.796875 148.64453125 C-187.82765938 170.19959634 -196.81628582 191.77216527 -205.79931641 213.34716797 C-208.13077986 218.94672922 -210.46350164 224.54576559 -212.796875 230.14453125 C-218.60226338 230.14453125 -220.80301416 227.08554327 -224.796875 223.14453125 C-231.02894314 216.67222465 -236.53213044 209.41541581 -241.796875 202.14453125 C-242.22952762 201.59334877 -242.66218023 201.04216629 -243.10794353 200.47428131 C-247.3096304 194.62729546 -247.48448606 189.63569679 -247.36450195 182.58789062 C-247.36523209 181.45530823 -247.36596222 180.32272583 -247.36671448 179.15582275 C-247.3632464 175.4328124 -247.32441903 171.71107157 -247.28515625 167.98828125 C-247.27582543 165.39897342 -247.26871059 162.80965674 -247.26371765 160.22033691 C-247.24661358 154.1146523 -247.20725575 148.0094873 -247.1569702 141.9039979 C-247.10093856 134.94874876 -247.07355571 127.9934772 -247.04849303 121.03805828 C-246.99633488 106.73996743 -246.9074634 92.44228167 -246.796875 78.14453125 C-252.736875 78.14453125 -258.676875 78.14453125 -264.796875 78.14453125 C-258.70936478 52.77990534 -247.86448174 29.97801016 -230.796875 10.14453125 C-230.35956055 9.63422363 -229.92224609 9.12391602 -229.47167969 8.59814453 C-224.30485221 2.62291499 -218.93605905 -2.88771911 -212.796875 -7.85546875 C-211.92289063 -8.59023437 -211.04890625 -9.325 -210.1484375 -10.08203125 C-147.37045604 -60.91767177 -58.05957018 -53.47099125 0 0 Z " fill="#8700FF" transform="translate(837.796875,134.85546875)"/>
<path d="M0 0 C12.47431251 9.41744141 21.64594239 23.28227187 24.94140625 38.66796875 C27.32160142 57.81578885 25.07016964 75.95537258 13.16259766 91.80664062 C2.50212794 105.09907705 -12.71226111 114.3518165 -29.69921875 116.59375 C-47.97044727 118.39629272 -64.92214426 114.39189984 -79.62109375 103.1875 C-93.60302187 91.17659259 -101.821229 75.56640059 -103.62109375 57.1875 C-104.90562504 39.34071417 -98.89760085 22.18187879 -87.40625 8.5625 C-64.3188395 -15.98424439 -27.36245225 -18.92127845 0 0 Z " fill="#D70067" transform="translate(697.62109375,439.8125)"/>
<path d="M0 0 C26.73 0 53.46 0 81 0 C93 31 93 31 92 35 C58.48208862 41.57944186 22.13064502 40.56532251 -9 25 C-7.26302158 16.31510792 -3.28936519 8.22341298 0 0 Z " fill="#8700FF" transform="translate(671,367)"/>
<path d="M0 0 C0.94543671 -0.00960754 1.89087341 -0.01921509 2.86495972 -0.02911377 C3.89710602 -0.03336365 4.92925232 -0.03761353 5.99267578 -0.04199219 C7.58283005 -0.0505423 7.58283005 -0.0505423 9.20510864 -0.05926514 C11.45980832 -0.0687384 13.71452198 -0.0752583 15.96923828 -0.07910156 C19.38876396 -0.08872861 22.80766838 -0.11969708 26.22705078 -0.15136719 C28.41975555 -0.15790497 30.61246462 -0.16315239 32.80517578 -0.16699219 C33.81707977 -0.17933899 34.82898376 -0.19168579 35.87155151 -0.20440674 C44.77429679 -0.17705857 53.95332718 1.00799055 61.12939453 6.70410156 C65.68893809 11.33818807 67.674711 17.00428558 67.81298828 23.41113281 C67.7219695 29.55995715 66.21843213 34.19249688 62.25048828 38.91113281 C52.97887906 46.6734103 44.78879854 47.47446489 33.00048828 47.39160156 C31.92798828 47.39114334 30.85548828 47.39068512 29.75048828 47.39021301 C27.50161623 47.38720962 25.25274591 47.37938127 23.00390625 47.36694336 C19.54566173 47.34854061 16.08768319 47.34643494 12.62939453 47.34667969 C10.44059011 47.34176932 8.25178751 47.33594311 6.06298828 47.32910156 C5.02456787 47.32798874 3.98614746 47.32687592 2.91625977 47.32572937 C1.96436768 47.31934952 1.01247559 47.31296967 0.03173828 47.30639648 C-0.809375 47.30258469 -1.65048828 47.29877289 -2.51708984 47.29484558 C-4.43701172 47.16113281 -4.43701172 47.16113281 -5.43701172 46.16113281 C-5.53506023 44.75438061 -5.56499358 43.34278146 -5.56640625 41.93261719 C-5.56955841 41.03498657 -5.57271057 40.13735596 -5.57595825 39.21252441 C-5.57393402 38.23650269 -5.57190979 37.26048096 -5.56982422 36.25488281 C-5.57078094 35.25984741 -5.57173767 34.26481201 -5.57272339 33.23962402 C-5.57340532 31.13126563 -5.57155015 29.02290516 -5.56738281 26.91455078 C-5.56203475 23.67508254 -5.56732739 20.43575296 -5.57373047 17.19628906 C-5.57306969 15.15332 -5.57178853 13.11035103 -5.56982422 11.06738281 C-5.57184845 10.09136108 -5.57387268 9.11533936 -5.57595825 8.10974121 C-5.57280609 7.2121106 -5.56965393 6.31447998 -5.56640625 5.38964844 C-5.56561066 4.59546509 -5.56481506 3.80128174 -5.56399536 2.98303223 C-5.31125837 -0.64311491 -3.11716041 0.02548733 0 0 Z " fill="#5200C8" transform="translate(404.43701171875,251.8388671875)"/>
<path d="M0 0 C7.40215704 -0.09201576 14.80231579 -0.1716036 22.20458984 -0.21972656 C24.72060891 -0.23979516 27.23658161 -0.2670563 29.75244141 -0.30175781 C33.37674428 -0.35048312 37.00042841 -0.37301722 40.625 -0.390625 C41.74302002 -0.41127014 42.86104004 -0.43191528 44.01293945 -0.45318604 C51.23392589 -0.45524322 57.07441659 0.34676341 62.51757812 5.41229248 C67.45488731 10.95988327 68.41618125 16.02700843 68.2421875 23.21875 C67.72200829 29.19242092 66.14349347 33.28376706 61.6875 37.375 C55.27325469 42.72768024 47.95360913 42.26914962 40.0390625 42.1953125 C38.89335785 42.1924826 37.7476532 42.18965271 36.56723022 42.18673706 C32.91971245 42.17557135 29.27244315 42.15047299 25.625 42.125 C23.14713897 42.11496555 20.66927408 42.10584051 18.19140625 42.09765625 C12.12743218 42.07734823 6.06399317 42.0381917 0 42 C0 28.14 0 14.28 0 0 Z " fill="#5200C8" transform="translate(212,323)"/>
<path d="M0 0 C6.65393338 -0.11525289 13.30435709 -0.21465479 19.95849609 -0.2746582 C22.21838157 -0.29968909 24.47818702 -0.33372438 26.73779297 -0.37719727 C29.99987619 -0.43835233 33.26088245 -0.46632502 36.5234375 -0.48828125 C38.02093033 -0.52699089 38.02093033 -0.52699089 39.54867554 -0.56648254 C47.71841814 -0.56969564 54.43011962 1.61319041 60.4375 7.3125 C64.15154342 13.70065468 66.18126218 19.54065318 64.56640625 27.00390625 C62.85187027 32.61608303 59.93310838 35.90776928 55 39 C48.11218421 41.85492124 41.55844492 42.41546337 34.1796875 42.29296875 C33.19501495 42.28872391 32.21034241 42.28447906 31.1958313 42.28010559 C28.08859476 42.26347705 24.98203643 42.2258555 21.875 42.1875 C19.75261361 42.17243268 17.63021694 42.15874788 15.5078125 42.14648438 C10.33807796 42.11619296 5.16978708 42.05744208 0 42 C0 28.14 0 14.28 0 0 Z " fill="#5200C8" transform="translate(212,250)"/>
<path d="M0 0 C0.99 0.33 1.98 0.66 3 1 C4.24220473 3.55266876 5.2917653 6.02492977 6.29296875 8.671875 C6.7542215 9.85124634 6.7542215 9.85124634 7.22479248 11.05444336 C8.2233091 13.61552991 9.20562537 16.18249246 10.1875 18.75 C10.86376707 20.49546524 11.54093191 22.24058291 12.21899414 23.98535156 C13.86561676 28.2300582 15.4992775 32.47960856 17.12866211 36.73095703 C18.33242264 39.86565874 19.54892964 42.99529657 20.765625 46.125 C21.49050934 47.9996422 22.21456934 49.87460353 22.9375 51.75 C23.26065186 52.5862793 23.58380371 53.42255859 23.91674805 54.28417969 C26 59.76150709 26 59.76150709 26 62 C9.83 62 -6.34 62 -23 62 C-22.28368225 58.41841125 -21.58086417 55.61068441 -20.29760742 52.27661133 C-19.95022018 51.36829056 -19.60283295 50.45996979 -19.24491882 49.52412415 C-18.8689003 48.55323349 -18.49288177 47.58234283 -18.10546875 46.58203125 C-17.522528 45.06339729 -17.522528 45.06339729 -16.92781067 43.51408386 C-15.68477022 40.27877375 -14.43613212 37.04565559 -13.1875 33.8125 C-12.35837308 31.65573381 -11.5295933 29.49883414 -10.70117188 27.34179688 C-7.18786303 18.20570213 -3.65675887 9.07982483 0 0 Z " fill="#8700FF" transform="translate(710,266)"/>
</svg>
