<svg id="Layer_1" data-name="Layer 1" xmlns="http://www.w3.org/2000/svg" viewBox="0 0 78 44.15"><defs><style>.cls-1{fill-rule:evenodd;}.cls-2{fill:#fc7303;}</style></defs><title>Wallarm Logo_eng</title><path class="cls-1" d="M10.43,26.56h2L14.9,34l2-7.45h2.48L15.9,37.49h-2L11.43,30,8.94,37.49H7L3.48,26.56H6L8,34Zm13.05,9.3c1.63,0,2.85-.91,2.85-2.25v-.67a6.91,6.91,0,0,0-2.46-.43c-1.55,0-2.46.63-2.46,1.73v0C21.41,35.29,22.32,35.86,23.48,35.86Zm-2.62-8.73a9.15,9.15,0,0,1,3.23-.54c3.18,0,4.72,1.58,4.72,4.44v6.46H26.33V36.17a4.27,4.27,0,0,1-3.43,1.54c-2,0-3.83-1.15-3.83-3.31v0c0-2.32,1.85-3.46,4.35-3.46a8.54,8.54,0,0,1,2.91.45v-.27c0-1.48-.87-2.29-2.58-2.29a7.6,7.6,0,0,0-2.89.58ZM30.3,37.49V22.59h2.48v14.9Zm4,0V22.59h2.49l.05,14.9Zm8.09-1.63c1.62,0,2.84-.91,2.84-2.25v-.67a6.87,6.87,0,0,0-2.46-.43c-1.54,0-2.46.63-2.46,1.73v0C40.28,35.29,41.2,35.86,42.36,35.86Zm-2.62-8.73A9.11,9.11,0,0,1,43,26.59c3.17,0,4.72,1.58,4.72,4.44v6.46H45.2V36.17a4.24,4.24,0,0,1-3.43,1.54c-2,0-3.82-1.15-3.82-3.31v0C38,32,39.8,30.9,42.3,30.9a8.44,8.44,0,0,1,2.9.45v-.27c0-1.48-.87-2.29-2.58-2.29a7.5,7.5,0,0,0-2.88.58Zm9.44,10.36V26.56h2.48V29a3.77,3.77,0,0,1,3.77-2.62V29h-.14c-2.16,0-3.63,1.41-3.63,4.25v4.28Zm23.84-7v7H70.53V31.34c0-1.71-.76-2.76-2.15-2.76s-2.32,1-2.32,2.76v6.15H63.58V31.18c0-1.67-.77-2.6-2.13-2.6s-2.34,1.09-2.34,2.76v6.15H56.63V26.56h2.48v1.63a3.91,3.91,0,0,1,3.32-1.85,3.38,3.38,0,0,1,3.19,1.89,4.37,4.37,0,0,1,3.64-1.89C71.6,26.34,73,27.82,73,30.45Z"/><path class="cls-2" d="M39.69,9.67l13.91-6v9l12.91-6v7l6.95-3v5l-6.95,3v-3l-12.91,6v-4l-13.91,6Z"/></svg>